<svg xmlns="http://www.w3.org/2000/svg" width="548" height="230" viewBox="0 0 548 230">
    <defs>
        <linearGradient id="a" x1="50%" x2="50%" y1="100%" y2="0%">
            <stop offset="0%" stop-color="#FFF"/>
            <stop offset="100%" stop-color="#FFEFAF"/>
        </linearGradient>
        <linearGradient id="b" x1="50%" x2="50%" y1="100%" y2="-21.429%">
            <stop offset="0%" stop-color="#FFF"/>
            <stop offset="100%" stop-color="#09BB07"/>
        </linearGradient>
    </defs>
    <g fill="none" fill-rule="evenodd">
        <circle cx="274" cy="115" r="115" fill="#FFF9DB" opacity=".4"/>
        <circle cx="274" cy="117" r="88" fill="url(#a)"/>
        <path fill="url(#b)" d="M279.196 128.164L343 230H205l63.182-101.836z" opacity=".5"/>
        <path fill="url(#b)" d="M272.396 128.19L336 230H205l63.15-101.81z" opacity=".7"/>
        <path fill="url(#b)" d="M347.357 168.03L386 229.858h-85L339.662 168z" opacity=".3"/>
        <path fill="url(#b)" d="M339.5 168l38.5 62h-77z" opacity=".3"/>
        <g fill="url(#b)" transform="translate(69 212)">
            <g opacity=".3">
                <path d="M10.908.009L20 18H0L9.097 0z"/>
                <path d="M9 0l9 18H0z" opacity=".5"/>
            </g>
            <path d="M23.908 6.006L33 18H13l9.097-12z" opacity=".3"/>
            <path d="M22 6l9 12H13z" opacity=".5"/>
        </g>
        <g fill="url(#b)" transform="translate(528 199)">
            <path d="M10.908.006L20 12H0L9.097 0z" opacity=".3"/>
            <path d="M9 0l9 12H0z" opacity=".5"/>
        </g>
        <g fill="url(#b)" opacity=".5" transform="translate(434 218)">
            <path d="M10.908.006L20 12H0L9.097 0z" opacity=".3"/>
            <path d="M9 0l9 12H0z"/>
        </g>
        <path fill="url(#b)" d="M204.792 152.125L253 230H149l48.242-77.929z" opacity=".4"/>
        <path fill="url(#b)" d="M197.5 152l48.5 78h-97z" opacity=".4"/>
        <path fill="#FF5F5C" d="M285 75h27.937a2 2 0 0 1 1.585 3.22L309.304 85l5.218 6.78a2 2 0 0 1-1.585 3.22H285a2 2 0 0 1-2-2V77a2 2 0 0 1 2-2z"/>
        <path fill="#E23532" d="M285 75h16a2 2 0 0 1 2 2v12a6 6 0 0 1-6 6h-12a2 2 0 0 1-2-2V77a2 2 0 0 1 2-2z"/>
        <path fill="#FF5F5C" d="M273 68h28a2 2 0 0 1 2 2v16a2 2 0 0 1-2 2h-28V68z"/>
        <path fill="#E4E4E4" d="M269 67h4v61h-4z"/>
        <path fill="#FFF" d="M268 67h3v61h-3z"/>
        <rect width="85" height="18" y="143" fill="#F6FAF6" rx="9"/>
        <rect width="62" height="18" x="454" y="57" fill="#F6FAF6" rx="9"/>
    </g>
</svg>
